<svg xmlns="http://www.w3.org/2000/svg" width="890" height="532" fill="none" viewBox="0 0 890 532"><g clip-path="url(#a)"><g fill="#6B6B66" clip-path="url(#b)" opacity=".15" style="mix-blend-mode:multiply"><path d="M52.041 60.91v470.999h786v-471h-786ZM759.522 531.11v-5.151h-.801v5.151h-77.72v-5.151h-.8v5.151h-77.72v-5.151h-.801v5.151h-77.718v-5.151h-.801v5.151h-77.72v-5.151h-.8v5.151h-77.719v-5.151h-.801v5.151h-77.719v-5.151h-.801v5.151h-77.72v-5.151h-.8v5.151h-77.719v-5.151h-.801v5.151h-77.72v-77.642h5.165v-.799h-5.164v-77.553h5.164v-.799h-5.164v-77.553h5.164v-.799h-5.164v-77.553h5.164v-.799h-5.164v-77.552h5.164v-.799h-5.164V61.724h5.164v-.016h72.555v5.152h.801v-5.152h77.719v5.152h.8v-5.152h77.72v5.152h.801v-5.152h77.719v5.152h.801v-5.152h77.719v5.152h.8v-5.152h77.72v5.152h.801v-5.152h77.718v5.152h.801v-5.152h77.72v5.152h.8v-5.152h77.72v5.152h.801v-5.152h77.718v77.555h-4.921v.799h4.921v77.552h-4.921v.799h4.921v77.553h-4.921v.799h4.921v77.553h-4.921v.799h4.921v77.553h-4.921v.799h4.921v77.642h-77.718Z"/><path d="M759.521 134.112h-.801v5.151h-5.163v.798h5.163v5.151h.801v-5.151h5.163v-.798h-5.163v-5.151ZM759.521 212.464h-.801v5.151h-5.163v.798h5.163v5.151h.801v-5.151h5.163v-.798h-5.163v-5.151ZM759.521 290.815h-.801v5.151h-5.163v.799h5.163v5.151h.801v-5.151h5.163v-.799h-5.163v-5.151ZM759.521 369.168h-.801v5.15h-5.163v.799h5.163v5.151h.801v-5.151h5.163v-.799h-5.163v-5.15ZM759.521 447.519h-.801v5.151h-5.163v.798h5.163v5.151h.801v-5.151h5.163v-.798h-5.163v-5.151ZM681.001 134.112h-.8v5.151h-5.164v.798h5.164v5.151h.8v-5.151h5.164v-.798h-5.164v-5.151ZM681.001 212.464h-.8v5.151h-5.164v.798h5.164v5.151h.8v-5.151h5.164v-.798h-5.164v-5.151ZM681.001 290.815h-.8v5.151h-5.164v.799h5.164v5.151h.8v-5.151h5.164v-.799h-5.164v-5.151ZM681.001 369.168h-.8v5.15h-5.164v.799h5.164v5.151h.8v-5.151h5.164v-.799h-5.164v-5.15ZM681.001 447.519h-.8v5.151h-5.164v.798h5.164v5.151h.8v-5.151h5.164v-.798h-5.164v-5.151ZM602.481 134.112h-.801v5.151h-5.162v.798h5.162v5.151h.801v-5.151h5.164v-.798h-5.164v-5.151ZM602.481 212.464h-.801v5.151h-5.162v.798h5.162v5.151h.801v-5.151h5.164v-.798h-5.164v-5.151ZM602.481 290.815h-.801v5.151h-5.162v.799h5.162v5.151h.801v-5.151h5.164v-.799h-5.164v-5.151ZM602.481 369.168h-.801v5.15h-5.162v.799h5.162v5.151h.801v-5.151h5.164v-.799h-5.164v-5.15ZM602.481 447.519h-.801v5.151h-5.162v.798h5.162v5.151h.801v-5.151h5.164v-.798h-5.164v-5.151ZM523.962 134.112h-.8v5.151h-5.164v.798h5.164v5.151h.8v-5.151h5.163v-.798h-5.163v-5.151ZM523.962 212.464h-.8v5.151h-5.164v.798h5.164v5.151h.8v-5.151h5.163v-.798h-5.163v-5.151ZM523.962 290.815h-.8v5.151h-5.164v.799h5.164v5.151h.8v-5.151h5.163v-.799h-5.163v-5.151ZM523.962 369.168h-.8v5.15h-5.164v.799h5.164v5.151h.8v-5.151h5.163v-.799h-5.163v-5.15ZM523.962 447.519h-.8v5.151h-5.164v.798h5.164v5.151h.8v-5.151h5.163v-.798h-5.163v-5.151ZM445.44 134.112h-.8v5.151h-5.163v.798h5.163v5.151h.8v-5.151h5.164v-.798h-5.164v-5.151ZM445.44 212.464h-.8v5.151h-5.163v.798h5.163v5.151h.8v-5.151h5.164v-.798h-5.164v-5.151ZM445.442 290.815h-.8v5.151h-5.163v.799h5.163v5.151h.8v-5.151h5.164v-.799h-5.164v-5.151ZM445.44 369.168h-.8v5.15h-5.163v.799h5.163v5.151h.8v-5.151h5.164v-.799h-5.164v-5.15ZM445.442 447.519h-.8v5.151h-5.163v.798h5.163v5.151h.8v-5.151h5.164v-.798h-5.164v-5.151ZM366.921 134.112h-.8v5.151h-5.164v.798h5.164v5.151h.8v-5.151h5.163v-.798h-5.163v-5.151ZM366.921 212.464h-.8v5.151h-5.164v.798h5.164v5.151h.8v-5.151h5.163v-.798h-5.163v-5.151ZM366.921 290.815h-.8v5.151h-5.164v.799h5.164v5.151h.8v-5.151h5.163v-.799h-5.163v-5.151ZM366.921 369.168h-.8v5.15h-5.164v.799h5.164v5.151h.8v-5.151h5.163v-.799h-5.163v-5.15ZM366.921 447.519h-.8v5.151h-5.164v.798h5.164v5.151h.8v-5.151h5.163v-.798h-5.163v-5.151ZM288.402 134.112h-.801v5.151h-5.163v.798h5.163v5.151h.801v-5.151h5.163v-.798h-5.163v-5.151ZM288.402 212.464h-.801v5.151h-5.163v.798h5.163v5.151h.801v-5.151h5.163v-.798h-5.163v-5.151ZM288.402 290.815h-.801v5.151h-5.163v.799h5.163v5.151h.801v-5.151h5.163v-.799h-5.163v-5.151ZM288.402 369.168h-.801v5.15h-5.163v.799h5.163v5.151h.801v-5.151h5.163v-.799h-5.163v-5.15ZM288.402 447.519h-.801v5.151h-5.163v.798h5.163v5.151h.801v-5.151h5.163v-.798h-5.163v-5.151ZM209.882 134.112h-.801v5.151h-5.163v.798h5.163v5.151h.801v-5.151h5.163v-.798h-5.163v-5.151ZM209.882 212.464h-.801v5.151h-5.163v.798h5.163v5.151h.801v-5.151h5.163v-.798h-5.163v-5.151ZM209.882 290.815h-.801v5.151h-5.163v.799h5.163v5.151h.801v-5.151h5.163v-.799h-5.163v-5.151ZM209.882 369.168h-.801v5.15h-5.163v.799h5.163v5.151h.801v-5.151h5.163v-.799h-5.163v-5.15ZM209.882 447.519h-.801v5.151h-5.163v.798h5.163v5.151h.801v-5.151h5.163v-.798h-5.163v-5.151ZM131.362 134.112h-.8v5.151h-5.164v.798h5.164v5.151h.8v-5.151h5.164v-.798h-5.164v-5.151ZM131.362 212.464h-.8v5.151h-5.164v.798h5.164v5.151h.8v-5.151h5.164v-.798h-5.164v-5.151ZM131.36 290.815h-.8v5.151h-5.164v.799h5.164v5.151h.8v-5.151h5.164v-.799h-5.164v-5.151ZM131.362 369.168h-.8v5.15h-5.164v.799h5.164v5.151h.8v-5.151h5.164v-.799h-5.164v-5.15ZM131.36 447.519h-.8v5.151h-5.164v.798h5.164v5.151h.8v-5.151h5.164v-.798h-5.164v-5.151Z"/></g><path fill="#C7C7C0" d="M56.908 60.551a4.858 4.858 0 0 0-1.422-3.096 4.812 4.812 0 0 0-3.097-1.414v-9.947h-.707v9.947a4.83 4.83 0 0 0-3.096 1.414 4.9 4.9 0 0 0-1.423 3.096h-9.938v.716h9.938a4.9 4.9 0 0 0 1.423 3.097 4.83 4.83 0 0 0 3.096 1.414v9.947h.707v-9.947a4.811 4.811 0 0 0 3.097-1.414 4.859 4.859 0 0 0 1.422-3.097h9.947v-.716h-9.947Zm-5.226 4.158a3.776 3.776 0 0 1-2.34-1.103 3.798 3.798 0 0 1-1.102-2.34h3.442v3.443Zm0-4.158H48.24a3.798 3.798 0 0 1 1.103-2.34 3.777 3.777 0 0 1 2.34-1.101v3.441Zm3.055 3.055a3.798 3.798 0 0 1-2.348 1.103v-3.442h3.45a3.843 3.843 0 0 1-1.102 2.34Zm-2.348-3.055V57.11a3.798 3.798 0 0 1 2.348 1.102 3.843 3.843 0 0 1 1.103 2.34h-3.45ZM842.908 60.551a4.857 4.857 0 0 0-1.422-3.096 4.81 4.81 0 0 0-3.097-1.414v-9.947h-.707v9.947a4.83 4.83 0 0 0-3.096 1.414 4.904 4.904 0 0 0-1.423 3.096h-9.938v.716h9.938a4.898 4.898 0 0 0 1.423 3.097 4.828 4.828 0 0 0 3.096 1.414v9.947h.707v-9.947a4.81 4.81 0 0 0 3.097-1.414 4.857 4.857 0 0 0 1.422-3.097h9.947v-.716h-9.947Zm-5.226 4.158a3.777 3.777 0 0 1-2.339-1.103 3.804 3.804 0 0 1-1.103-2.34h3.442v3.443Zm0-4.158h-3.442a3.805 3.805 0 0 1 1.103-2.34 3.777 3.777 0 0 1 2.339-1.101v3.441Zm3.055 3.055a3.796 3.796 0 0 1-2.348 1.103v-3.442h3.451a3.848 3.848 0 0 1-1.103 2.34Zm-2.348-3.055V57.11a3.796 3.796 0 0 1 2.348 1.102 3.848 3.848 0 0 1 1.103 2.34h-3.451Z" style="mix-blend-mode:multiply"/><path fill="#6B6B66" d="M890.471 448.538v-.675l-890.942.001v3.604h240.768l-3.321-2.93h653.495Z"/><g fill="#C7C7C0" style="mix-blend-mode:multiply"><path d="M452.739 15.792c1.245.214 2.369.442 3.393.69a24.83 24.83 0 0 1 2.763.823c.824.308 1.553.65 2.209 1.045a9.263 9.263 0 0 1 1.747 1.345 9.165 9.165 0 0 1 1.351 1.735 13.172 13.172 0 0 1 1.198 2.584c.254.71.482 1.493.69 2.35.16.636.308 1.319.448 2.049.087.421.167.863.248 1.319a.6.6 0 0 0 .214.375c.334.274.937.147 1.03-.375 0-.02.007-.034.007-.054h.007c.087-.495.174-.977.267-1.433l.121-.582c.227-1.078.468-2.049.749-2.926.342-1.098.723-2.049 1.185-2.879.027-.054.06-.107.094-.16.428-.764.93-1.42 1.512-2.003a8.08 8.08 0 0 1 .997-.843h.007s.006-.007.013-.007c.235-.18.475-.341.73-.495a13.005 13.005 0 0 1 2.208-1.045c.823-.308 1.74-.575 2.764-.823a51.04 51.04 0 0 1 3.393-.69c.703-.12.703-1.118 0-1.239-.515-.093-1.017-.18-1.492-.274-1.325-.261-2.497-.542-3.541-.864-1.104-.334-2.061-.723-2.897-1.171-.837-.456-1.56-.978-2.182-1.6a9.397 9.397 0 0 1-1.358-1.728 13.12 13.12 0 0 1-1.051-2.196c-.315-.817-.582-1.727-.837-2.738a55.002 55.002 0 0 1-.696-3.368c-.12-.696-1.124-.696-1.244 0a53.656 53.656 0 0 1-.275 1.486c-.267 1.313-.548 2.47-.87 3.509-.341 1.091-.729 2.042-1.184 2.872-.462.837-.984 1.547-1.606 2.162a9.505 9.505 0 0 1-2.182 1.6c-.837.45-1.794.838-2.898 1.172-1.044.322-2.215.603-3.54.864-.482.094-.977.18-1.499.274-.696.121-.696 1.119.007 1.24ZM450.549 74.496c-.69 0-1.372 0-2.055-.02-14.354 9.36-27.19 13.035-31.185 8.188-1.994-2.417-1.486-6.595.997-11.703a85.484 85.484 0 0 1-5.12-1.4c-5.547 8.751-7.414 16.082-4.276 19.885 5.595 6.783 25.169.1 45.721-14.99-1.184.026-2.376.04-3.573.04h-.509Z"/><path d="M418.137 62.606a50.625 50.625 0 0 0 4.33 1.466c4.463-6.307 11.055-13.324 19.079-19.945a82.426 82.426 0 0 1 1.767-1.427l2.677-1.936c.891-.029 1.791-.052 2.703-.058.65-.013 1.299-.013 1.955-.013 5.174.016 10.135.33 14.734.891.598.145 1.368.278 2.349.391 1.42.165 2.715.357 3.894.564 1.019.19 2.012.391 2.978.606 2.44.57 4.146 1.163 5.193 1.586-.286.43-.582.864-.894 1.298-4.457 6.347-11.082 13.41-19.167 20.079a119.1 119.1 0 0 1-1.539 1.245 117.97 117.97 0 0 0 5.876-.475c7.569-6.461 14.027-13.156 18.965-19.45.375-.482.744-.957 1.092-1.426l.03.013c3.404-4.613 6.045-9.172 8.146-13.908 1.89-4.955 1.991-8.985-.072-11.493-2.369-2.873-7.241-3.328-13.632-1.755-3.808.938-6.96 3.757-8.091 7.513-.054.18-.101.355-.147.535 6.431-2.089 11.39-2.035 13.612.663 1.954 2.37 1.505 6.42-.844 11.375a38.367 38.367 0 0 1-.803 1.594l-.047.086a53.136 53.136 0 0 0-1.725-.455l.019-.033c-.655-.145-1.324-.284-1.999-.42a82.009 82.009 0 0 0-5.293-.938c-5.962-.919-12.507-1.491-19.403-1.641-1.024-.027-2.048-.04-3.086-.047.857-.59 1.714-1.159 2.564-1.708 4.028-2.59 7.93-4.727 11.544-6.347-.167-.87-.335-1.64-.502-2.336a23.426 23.426 0 0 0-.569-1.976c-5.375 2.79-11.136 6.373-16.985 10.645a146.05 146.05 0 0 0-7.283 5.76l-2.501 2.067c-7.549 6.448-13.993 13.13-18.925 19.41Z"/><path d="M490.062 42.792a135.684 135.684 0 0 1-3.135 4.475c4.468 2.263 7.066 4.96 7.06 7.853-.02 6.253-12.219 11.529-29.191 13.424-1.004.114-2.028.214-3.065.308-1.914.154-3.881.274-5.896.348-.99.04-1.994.067-3.011.08-.75.014-1.506.014-2.262.014-10.387-.034-19.916-1.266-27.378-3.295a54.777 54.777 0 0 1-1.753-.502 50.683 50.683 0 0 1-4.397-1.54 31.039 31.039 0 0 1-1.646-.71c-5.146-2.363-8.171-5.262-8.165-8.382.019-5.925 10.964-10.974 26.533-13.096l5.341-4.306c-24.397 1.663-42.682 8.735-42.708 17.262-.014 4.947 6.13 9.44 16.061 12.694a82.733 82.733 0 0 0 6.685 1.868 60.9 60.9 0 0 0 1.754.402c7.843 1.713 17.112 2.778 27.083 2.959.857.013 1.72.027 2.583.027h.502c2.028 0 4.029-.04 5.996-.114a107.95 107.95 0 0 0 2.998-.134c25.424-1.4 44.744-8.624 44.771-17.388.013-4.725-5.598-9.038-14.76-12.247Z"/></g></g><defs><clipPath id="a"><path fill="#fff" d="M0 0h890v532H0z"/></clipPath><clipPath id="b"><path fill="#fff" d="M0 0h786v471H0z" transform="translate(52.041 60.91)"/></clipPath></defs></svg>